<svg id="Группа_6" data-name="Группа 6" xmlns="http://www.w3.org/2000/svg" width="85" height="90" viewBox="0 0 85 90">
  <metadata><?xpacket begin="﻿" id="W5M0MpCehiHzreSzNTczkc9d"?>
<x:xmpmeta xmlns:x="adobe:ns:meta/" x:xmptk="Adobe XMP Core 5.6-c142 79.160924, 2017/07/13-01:06:39        ">
   <rdf:RDF xmlns:rdf="http://www.w3.org/1999/02/22-rdf-syntax-ns#">
      <rdf:Description rdf:about=""/>
   </rdf:RDF>
</x:xmpmeta>
                                                                                                    
                                                                                                    
                                                                                                    
                                                                                                    
                                                                                                    
                                                                                                    
                                                                                                    
                                                                                                    
                                                                                                    
                                                                                                    
                                                                                                    
                                                                                                    
                                                                                                    
                                                                                                    
                                                                                                    
                                                                                                    
                                                                                                    
                                                                                                    
                                                                                                    
                                                                                                    
                           
<?xpacket end="w"?></metadata>
<defs>
    <style>
      .cls-1 {
        fill: #f4faff;
      }

      .cls-1, .cls-2 {
        fill-rule: evenodd;
      }

      .cls-2 {
        fill: #1085e4;
      }
    </style>
  </defs>
  <path id="Polygon_2" data-name="Polygon 2" class="cls-1" d="M975,1864.01l34.993,20V1924L975,1944l-34.991-20v-39.99Z" transform="translate(-925 -1864)"/>
  <path id="icon" class="cls-2" d="M962.755,1929.64a1.115,1.115,0,1,0,0-2.23H927.4a0.172,0.172,0,0,1-.166-0.17V1886.4a0.173,0.173,0,0,1,.166-0.17h53.881a0.173,0.173,0,0,1,.166.17v19.66a1.117,1.117,0,1,0,2.234,0V1886.4a2.4,2.4,0,0,0-2.4-2.4H927.4a2.4,2.4,0,0,0-2.4,2.4v40.84a2.4,2.4,0,0,0,2.4,2.4h20.135v6.75h-8.589a1.115,1.115,0,1,0,0,2.23h23.809a1.115,1.115,0,1,0,0-2.23h-1.609v-6.75h1.609Zm-3.843,6.75h-9.143v-6.75h9.143v6.75Zm3.843-16.55h-32.17a1.115,1.115,0,1,0,0,2.23h32.17A1.115,1.115,0,1,0,962.755,1919.84Zm29.845-10.43H968.506a2.4,2.4,0,0,0-2.4,2.4v39.79a2.4,2.4,0,0,0,2.4,2.4H992.6a2.4,2.4,0,0,0,2.4-2.4v-39.79A2.4,2.4,0,0,0,992.6,1909.41Zm-24.26,6.7h24.426v26.72H968.34v-26.72Zm0.166-4.47H992.6a0.173,0.173,0,0,1,.166.17v2.07H968.34v-2.07A0.173,0.173,0,0,1,968.506,1911.64Zm24.094,40.13H968.506a0.173,0.173,0,0,1-.166-0.17v-6.54h24.426v6.54A0.173,0.173,0,0,1,992.6,1951.77Zm-9.813-4.47h-4.468a1.115,1.115,0,1,0,0,2.23h4.468A1.115,1.115,0,1,0,982.787,1947.3Z" transform="translate(-925 -1864)"/>
</svg>
