<svg id="Группа_7" data-name="Группа 7" xmlns="http://www.w3.org/2000/svg" width="100" height="87" viewBox="0 0 100 87">
  <metadata><?xpacket begin="﻿" id="W5M0MpCehiHzreSzNTczkc9d"?>
<x:xmpmeta xmlns:x="adobe:ns:meta/" x:xmptk="Adobe XMP Core 5.6-c142 79.160924, 2017/07/13-01:06:39        ">
   <rdf:RDF xmlns:rdf="http://www.w3.org/1999/02/22-rdf-syntax-ns#">
      <rdf:Description rdf:about=""/>
   </rdf:RDF>
</x:xmpmeta>
                                                                                                    
                                                                                                    
                                                                                                    
                                                                                                    
                                                                                                    
                                                                                                    
                                                                                                    
                                                                                                    
                                                                                                    
                                                                                                    
                                                                                                    
                                                                                                    
                                                                                                    
                                                                                                    
                                                                                                    
                                                                                                    
                                                                                                    
                                                                                                    
                                                                                                    
                                                                                                    
                           
<?xpacket end="w"?></metadata>
<defs>
    <style>
      .cls-1 {
        fill: #f4faff;
      }

      .cls-1, .cls-2 {
        fill-rule: evenodd;
      }

      .cls-2 {
        fill: #1085e4;
      }
    </style>
  </defs>
  <path class="cls-1" d="M1366.54,1886.56c-0.35-13.32-7.99-24.2-18.16-17.56-3.6,2.35-5.56,6.89-9.13,9.3-3.28,2.23-7.38,2.51-11.21,2.5-7.76-.03-16.78-3.45-19.11,7.25-1.59,7.29,7.58,11.94,5.34,18.95-0.7,2.2-2.87,3.82-4.65,5.19-4.43,3.39-7.73,6.31-11.01,11.14-6.15,9.03-6.58,13.24-4.43,18.93,2.32,6.17,11.03,11.96,18.26,9.06,8.67-3.47,7.85-10.87,17.49-14.7,8.14-3.24,10.62,3.7,13.67,9.38,5.76,10.71,16.94,10.3,24.56,1,2.48-3.02,6.71-9.64,5.88-13.97-0.68-3.5-5.24-5.61-7.45-7.98-7.77-8.33,5.28-11.33,12.13-14.39,6.54-2.92,17.09-8.93,13.61-19.79-1.2-3.72-9.54-7.05-12.9-5.75C1374.68,1886.95,1366.68,1891.71,1366.54,1886.56Z" transform="translate(-1293 -1867)"/>
  <path id="icon" class="cls-2" d="M1366.43,1910.48a26.43,26.43,0,1,0-52.86-.07v0.07a11.215,11.215,0,0,0-10.57,11.16v1.32a11.22,11.22,0,0,0,11.23,11.23h0.6l4.69,7.46a17.679,17.679,0,0,0,15.13,8.39h0.92a5.29,5.29,0,1,0,0-2.64h-0.92a15.091,15.091,0,0,1-12.89-7.2l-3.83-6.01h0.93a2.65,2.65,0,0,0,2.64-2.64v-18.49a2.652,2.652,0,0,0-2.64-2.65h-2.65a23.79,23.79,0,0,1,47.58,0h-2.65a2.652,2.652,0,0,0-2.64,2.65v18.49a2.65,2.65,0,0,0,2.64,2.64h4.63a11.22,11.22,0,0,0,11.23-11.23v-1.32A11.215,11.215,0,0,0,1366.43,1910.48Zm-25.77,35.6a2.64,2.64,0,1,1-2.64,2.64A2.644,2.644,0,0,1,1340.66,1946.08Zm-21.8-33.02v18.49h-4.63a8.57,8.57,0,0,1-8.59-8.59v-1.32a8.568,8.568,0,0,1,8.59-8.58h4.63Zm55.5,9.9a8.576,8.576,0,0,1-8.59,8.59h-4.63v-18.49h4.63a8.574,8.574,0,0,1,8.59,8.58v1.32Zm-23.39-28.99a5.721,5.721,0,0,1-.53-0.33c-0.2-.13-0.4-0.26-0.53-0.33a1.237,1.237,0,0,0-1.78.46,1.3,1.3,0,0,0,.46,1.79,4.146,4.146,0,0,1,.53.33,2.916,2.916,0,0,0,.59.33,1.3,1.3,0,0,0,.66.2,1.23,1.23,0,0,0,1.13-.67A1.333,1.333,0,0,0,1350.97,1893.97ZM1340,1890.6a19.174,19.174,0,0,0-14.54,6.67,1.327,1.327,0,0,0,1,2.18,1.2,1.2,0,0,0,.99-0.46,16.579,16.579,0,0,1,16.12-5.35,1.4,1.4,0,0,0,1.58-.99,1.367,1.367,0,0,0-.99-1.58A17.877,17.877,0,0,0,1340,1890.6Z" transform="translate(-1293 -1867)"/>
</svg>
